<?xml version="1.0" encoding="UTF-8"?>
<svg xmlns="http://www.w3.org/2000/svg" width="1400" height="1400" viewBox="0 0 1400 1400">
<rect width="100%" height="100%" fill="#fbfbf7"/>
<style>text{font-family:-apple-system,BlinkMacSystemFont,"PingFang SC","Hiragino Sans GB","Microsoft YaHei",Arial,sans-serif}.grid{stroke:#dfe5df;stroke-width:1}.axis{stroke:#818a86;stroke-width:1}.series{fill:none;stroke:#2f6f83;stroke-width:2.4}.fall{stroke:#c94337;stroke-width:3.2;fill:none}.rise{stroke:#24845c;stroke-width:2.7;fill:none}.unfinished{stroke-dasharray:8 7}.label{paint-order:stroke;stroke:#fbfbf7;stroke-width:4;stroke-linejoin:round}.small{font-size:12px}</style>
<text x="88.0" y="42.0" font-size="25" fill="#172326" text-anchor="start" font-weight="700" >恒生科技指数真实点位：主要波峰/波谷周期</text>
<text x="88.0" y="73.0" font-size="13" fill="#536166" text-anchor="start" font-weight="400" >数据：Hang Seng Indexes 02083.00 chart.json 的 indexLevels-5y；区间 2021-06-25 至 2026-06-26；最新点位 4,255.59。</text>
<text x="88.0" y="96.0" font-size="13" fill="#536166" text-anchor="start" font-weight="400" >峰谷识别：20% 反转 ZigZag。峰值后下跌 &gt;=20% 确认波峰，波谷后反弹 &gt;=20% 确认波谷；虚线为尚未被反弹确认的最后一段。</text>
<line class="grid" x1="88" y1="762.0" x2="1338" y2="762.0"/>
<text x="76.0" y="766.0" font-size="12" fill="#62706b" text-anchor="end" font-weight="400" >2,000</text>
<line class="grid" x1="88" y1="670.6" x2="1338" y2="670.6"/>
<text x="76.0" y="674.6" font-size="12" fill="#62706b" text-anchor="end" font-weight="400" >3,000</text>
<line class="grid" x1="88" y1="579.1" x2="1338" y2="579.1"/>
<text x="76.0" y="583.1" font-size="12" fill="#62706b" text-anchor="end" font-weight="400" >4,000</text>
<line class="grid" x1="88" y1="487.7" x2="1338" y2="487.7"/>
<text x="76.0" y="491.7" font-size="12" fill="#62706b" text-anchor="end" font-weight="400" >5,000</text>
<line class="grid" x1="88" y1="396.3" x2="1338" y2="396.3"/>
<text x="76.0" y="400.3" font-size="12" fill="#62706b" text-anchor="end" font-weight="400" >6,000</text>
<line class="grid" x1="88" y1="304.9" x2="1338" y2="304.9"/>
<text x="76.0" y="308.9" font-size="12" fill="#62706b" text-anchor="end" font-weight="400" >7,000</text>
<line class="grid" x1="88" y1="213.4" x2="1338" y2="213.4"/>
<text x="76.0" y="217.4" font-size="12" fill="#62706b" text-anchor="end" font-weight="400" >8,000</text>
<line class="grid" x1="88" y1="122.0" x2="1338" y2="122.0"/>
<text x="76.0" y="126.0" font-size="12" fill="#62706b" text-anchor="end" font-weight="400" >9,000</text>
<line class="grid" x1="218.0" y1="122" x2="218.0" y2="762"/>
<text x="218.0" y="789.0" font-size="12" fill="#62706b" text-anchor="middle" font-weight="400" >2022</text>
<line class="grid" x1="467.7" y1="122" x2="467.7" y2="762"/>
<text x="467.7" y="789.0" font-size="12" fill="#62706b" text-anchor="middle" font-weight="400" >2023</text>
<line class="grid" x1="717.4" y1="122" x2="717.4" y2="762"/>
<text x="717.4" y="789.0" font-size="12" fill="#62706b" text-anchor="middle" font-weight="400" >2024</text>
<line class="grid" x1="967.9" y1="122" x2="967.9" y2="762"/>
<text x="967.9" y="789.0" font-size="12" fill="#62706b" text-anchor="middle" font-weight="400" >2025</text>
<line class="grid" x1="1217.6" y1="122" x2="1217.6" y2="762"/>
<text x="1217.6" y="789.0" font-size="12" fill="#62706b" text-anchor="middle" font-weight="400" >2026</text>
<line class="axis" x1="88" y1="762" x2="1338" y2="762"/>
<line class="axis" x1="88" y1="122" x2="88" y2="762"/>
<text x="36.0" y="108.0" font-size="12" fill="#62706b" text-anchor="start" font-weight="400" >指数点位</text>
<polyline class="series" points="88.0,191.9 90.1,188.1 90.7,195.0 91.4,199.2 92.8,223.3 94.8,239.7 95.5,245.7 96.2,249.7 96.9,275.4 97.6,265.6 99.6,257.8 100.3,244.6 101.0,243.8 101.7,244.4 102.4,248.7 104.4,265.4 105.1,274.0 105.8,274.9 106.5,260.0 107.2,280.3 109.2,324.0 109.9,373.5 110.6,355.8 111.3,308.6 111.9,324.9 114.0,323.5 114.7,332.6 115.4,317.7 116.1,330.9 116.7,332.6 118.8,335.5 119.5,320.4 120.2,321.3 120.8,330.5 121.5,342.4 123.6,357.9 124.3,376.3 124.9,375.6 125.6,392.3 126.3,405.9 128.4,394.3 129.1,355.5 129.7,354.3 130.4,365.5 131.1,366.8 133.2,360.5 133.8,340.7 134.5,332.9 135.2,323.0 135.9,329.6 137.9,325.1 138.6,315.1 139.3,316.6 140.0,345.1 140.7,327.9 142.7,341.9 143.4,350.4 144.1,369.0 144.8,375.0 145.5,354.9 147.5,371.5 148.2,374.1 149.6,368.8 150.3,381.7 152.3,386.8 153.0,375.1 153.7,379.9 154.4,387.0 157.1,398.7 157.8,400.4 158.5,408.5 159.2,380.6 159.8,377.4 161.9,359.4 162.6,378.0 164.6,367.1 166.7,366.6 167.4,348.9 168.0,333.1 168.7,338.1 169.4,327.3 171.5,328.2 172.2,336.5 172.8,355.9 173.5,355.6 174.2,361.9 176.3,370.7 176.9,367.5 177.6,371.3 178.3,362.0 179.0,371.0 181.0,378.6 181.7,376.0 182.4,364.3 183.1,353.8 183.8,344.6 185.8,341.3 186.5,331.2 187.2,334.8 187.9,352.9 188.6,354.4 190.6,358.7 191.3,366.7 192.0,369.6 192.7,363.5 193.4,382.4 195.4,387.2 196.1,393.7 196.8,390.9 197.5,394.7 198.2,403.1 200.2,421.2 200.9,399.2 201.6,399.0 202.3,386.9 202.9,393.1 205.0,394.3 205.7,406.8 206.4,415.0 207.0,412.5 207.7,425.5 209.8,442.1 210.5,431.7 211.2,425.1 211.8,429.4 212.5,431.1 215.3,435.7 215.9,444.6 216.6,444.2 217.3,426.4 219.4,429.2 220.0,434.5 220.7,458.1 221.4,451.4 222.1,441.6 224.2,430.5 224.8,431.1 225.5,405.4 226.2,414.9 226.9,417.4 228.9,421.5 229.6,423.8 230.3,428.9 231.0,405.7 231.7,408.1 233.7,423.4 234.4,437.2 235.1,433.1 235.8,452.6 236.5,461.0 238.5,449.7 241.3,434.5 243.3,439.3 244.0,447.8 244.7,429.6 245.4,426.7 246.0,433.1 248.1,441.8 248.8,442.9 249.5,431.4 250.2,427.2 250.8,443.8 252.9,457.8 253.6,467.0 254.3,460.4 254.9,481.3 255.6,477.4 257.7,476.9 258.4,473.5 259.0,486.3 259.7,491.6 260.4,511.7 262.5,530.9 263.2,544.2 263.8,543.1 264.5,539.2 265.2,556.6 267.3,599.4 267.9,627.4 268.6,556.9 269.3,526.8 270.0,534.8 272.0,541.1 272.7,519.4 273.4,510.7 274.1,523.5 274.8,544.5 276.8,534.0 277.5,523.6 278.2,522.2 278.9,528.1 279.6,531.2 281.6,508.7 283.0,525.4 283.7,535.8 284.4,540.5 286.4,561.7 287.1,556.3 287.8,554.6 288.5,549.9 291.9,564.8 292.6,566.9 293.3,580.0 293.9,579.0 296.0,596.9 296.7,586.9 297.4,580.9 298.0,573.0 298.7,536.0 301.5,541.7 302.1,554.9 302.8,555.5 303.5,575.8 306.3,587.7 306.9,577.4 307.6,591.5 308.3,575.6 310.4,575.5 311.0,554.2 311.7,555.3 312.4,570.8 313.1,553.1 315.1,562.9 315.8,576.2 316.5,575.1 317.2,576.1 317.9,562.1 319.9,547.0 320.6,534.9 321.3,539.5 322.0,542.8 324.7,524.1 325.4,524.3 326.1,504.3 326.8,510.6 327.5,503.6 329.5,524.4 330.2,524.7 330.9,514.8 331.6,529.1 332.3,519.4 334.3,519.0 335.0,509.6 335.7,528.6 336.4,519.2 337.0,501.9 339.1,481.1 339.8,478.2 340.5,493.5 341.1,499.6 343.9,498.3 344.6,500.4 345.3,505.8 345.9,507.8 346.6,505.2 348.7,522.2 349.4,531.2 350.0,529.1 350.7,525.4 351.4,538.9 353.5,526.6 354.1,532.8 354.8,526.4 355.5,525.9 356.2,524.5 358.3,530.3 358.9,524.6 359.6,530.1 360.3,528.6 361.0,548.9 363.0,549.5 363.7,561.4 364.4,556.6 365.1,544.3 365.8,541.1 367.8,548.5 368.5,552.1 369.2,563.3 369.9,549.3 370.6,547.1 372.6,551.0 373.3,558.9 374.0,557.3 374.7,561.5 375.4,561.6 377.4,565.2 378.1,566.2 378.8,576.7 379.5,554.6 380.1,551.5 382.2,556.4 382.9,558.3 383.6,554.1 384.3,560.5 384.9,566.0 387.0,573.3 387.7,573.0 388.4,577.9 389.0,581.5 389.7,572.1 392.5,572.8 393.1,583.4 393.8,582.5 394.5,592.1 396.6,599.4 397.3,592.5 397.9,603.2 398.6,609.0 399.3,616.7 401.4,611.4 402.0,609.6 402.7,622.5 403.4,626.5 404.1,629.4 406.1,631.5 407.5,607.9 408.2,610.2 408.9,621.2 410.9,634.1 411.6,645.1 412.3,645.9 413.0,656.1 413.7,651.7 415.7,652.3 416.4,639.8 417.1,652.6 417.8,659.5 418.5,661.3 420.5,688.7 421.2,681.1 421.9,674.6 422.6,671.6 423.2,686.8 425.3,684.1 426.0,663.7 426.7,656.3 427.4,667.3 428.0,646.4 430.1,634.3 430.8,639.1 431.5,644.9 432.1,654.8 432.8,625.6 434.9,619.9 435.6,596.2 436.2,596.9 436.9,604.6 437.6,602.7 439.7,612.8 440.4,623.5 441.0,619.8 441.7,617.3 442.4,624.8 444.5,631.0 445.1,607.0 445.8,597.6 446.5,593.8 447.2,590.2 449.2,557.4 449.9,564.4 450.6,578.7 451.3,554.4 452.0,545.4 454.0,561.5 454.7,558.7 455.4,557.4 456.1,566.7 456.8,565.5 458.8,567.7 459.5,579.5 460.2,576.9 460.9,559.9 461.6,567.8 465.0,559.7 465.7,569.3 466.4,567.4 469.1,557.8 469.8,540.1 470.5,534.0 471.1,539.7 473.2,527.0 473.9,528.1 474.6,529.1 475.2,534.6 475.9,528.4 478.0,532.8 478.7,533.4 479.4,531.2 480.0,538.0 480.7,527.1 484.8,509.3 485.5,504.8 487.6,526.1 488.2,529.5 488.9,515.5 489.6,515.5 490.3,521.2 492.4,536.6 493.0,531.9 493.7,539.7 494.4,526.9 495.1,546.0 497.1,544.9 497.8,548.9 498.5,552.7 499.2,545.6 499.9,555.6 501.9,550.7 502.6,564.7 503.3,569.9 504.0,565.5 504.7,578.2 506.7,580.1 507.4,586.0 508.1,562.2 508.8,567.6 509.5,559.8 511.5,562.9 512.2,567.9 512.9,580.1 513.6,585.5 514.2,599.1 516.3,589.1 517.0,598.3 517.7,591.4 518.4,596.3 519.0,581.0 521.1,591.0 521.8,582.3 522.5,578.3 523.1,560.9 523.8,558.6 525.9,569.5 526.6,566.0 527.2,556.6 527.9,554.4 528.6,551.4 530.7,551.5 531.3,557.8 532.7,557.4 536.1,556.5 536.8,563.9 537.5,564.5 538.2,564.1 540.2,555.9 540.9,560.6 541.6,569.8 542.3,570.2 543.0,581.9 545.0,582.7 545.7,595.2 546.4,590.8 547.1,591.8 547.8,588.1 550.5,588.4 551.2,594.2 551.9,592.3 552.6,588.7 554.6,587.0 555.3,597.5 556.0,596.4 556.7,591.7 557.3,590.7 559.4,586.0 560.1,583.0 560.8,591.0 561.5,586.7 562.1,595.4 564.2,588.0 564.9,592.6 565.6,599.6 566.2,607.4 569.0,611.4 569.7,606.4 570.3,613.3 571.0,612.9 571.7,595.2 573.8,593.7 574.5,594.3 575.1,586.4 575.8,588.8 576.5,585.2 578.6,584.2 579.2,575.7 579.9,574.3 580.6,561.0 581.3,557.8 583.3,562.8 584.0,572.3 584.7,582.7 586.1,590.2 588.1,590.8 588.8,581.7 589.5,579.0 590.2,585.2 590.9,587.3 592.9,574.2 593.6,572.3 594.3,577.6 595.0,583.8 595.7,588.2 597.7,584.2 598.4,578.9 599.1,571.7 599.8,557.5 600.5,558.2 603.2,567.3 603.9,568.6 604.6,573.3 605.2,569.6 607.3,577.8 608.0,555.6 608.7,559.1 609.3,547.9 610.0,536.5 612.1,528.9 612.8,529.9 613.5,543.6 614.1,542.0 614.8,533.7 616.9,533.5 617.6,544.9 618.2,545.0 618.9,544.6 619.6,554.2 621.7,560.1 622.3,562.8 623.0,567.6 623.7,564.7 624.4,578.5 626.5,586.2 627.1,579.1 627.8,578.3 628.5,564.7 629.2,573.8 631.2,567.5 631.9,557.7 632.6,561.3 633.3,562.7 636.0,551.3 636.7,561.5 637.4,563.0 638.1,570.8 640.8,571.5 641.5,573.3 642.2,575.4 642.9,573.7 643.6,572.0 645.6,580.3 646.3,580.5 647.0,586.3 647.7,592.9 648.3,579.9 650.4,589.8 651.1,595.8 651.8,594.3 652.4,599.4 653.1,586.4 655.9,595.8 656.6,601.8 657.2,601.3 657.9,596.0 660.0,595.1 660.7,590.6 661.3,583.5 662.0,577.4 662.7,590.1 664.8,596.4 665.4,594.1 666.1,600.0 666.8,606.6 667.5,610.0 670.2,613.6 670.9,606.5 671.6,605.4 672.3,596.9 674.3,592.5 675.0,601.2 675.7,601.8 676.4,596.2 677.1,584.9 679.1,570.1 679.8,574.0 680.5,577.2 681.2,576.9 681.9,589.0 683.9,580.9 684.6,583.6 685.3,567.6 686.0,574.6 686.7,581.0 688.7,572.0 689.4,575.8 690.1,576.4 690.8,568.4 691.4,576.9 693.5,576.2 694.2,579.1 694.9,587.3 695.6,588.3 696.2,594.6 698.3,601.1 699.0,608.2 699.7,602.2 700.3,604.7 701.0,606.0 703.1,609.6 703.8,603.8 704.4,607.8 705.1,606.7 705.8,599.2 707.9,603.8 708.6,605.9 709.2,604.1 709.9,605.6 710.6,620.5 714.0,612.1 714.7,600.7 715.4,600.7 718.1,605.2 718.8,611.5 719.5,610.7 720.2,616.4 722.2,626.3 722.9,629.0 723.6,631.4 724.3,624.6 725.0,627.5 727.0,633.6 727.7,640.8 728.4,655.9 729.1,654.5 729.8,658.7 731.8,667.3 732.5,657.1 733.2,644.9 733.9,642.2 734.6,653.5 736.6,652.0 737.3,661.5 738.0,670.0 738.7,664.5 739.3,666.6 741.4,667.0 742.1,648.3 742.8,653.1 743.4,655.2 744.1,658.9 747.6,652.5 748.2,650.2 748.9,639.2 751.0,647.4 751.7,646.4 752.3,638.5 753.0,633.1 753.7,634.0 755.8,634.6 756.4,624.6 757.1,631.6 757.8,631.1 758.5,625.9 760.6,627.2 761.2,641.0 761.9,632.9 762.6,637.7 763.3,635.3 765.3,626.5 766.0,611.7 766.7,610.6 767.4,615.4 768.1,620.3 770.1,616.2 770.8,622.3 771.5,620.2 772.2,617.3 772.9,628.9 774.9,630.6 775.6,627.5 776.3,634.6 777.0,626.9 780.4,620.9 781.1,628.4 782.4,629.3 784.5,629.9 785.2,626.8 785.9,620.1 786.5,621.3 787.2,627.2 789.3,630.1 790.0,639.7 790.7,639.5 791.3,637.9 792.0,645.1 794.1,639.8 794.8,629.5 795.4,618.1 796.1,619.9 796.8,604.9 798.9,605.4 799.5,606.5 800.9,591.4 801.6,581.8 803.7,578.4 804.3,586.2 805.0,590.8 805.7,584.0 806.4,582.6 808.4,577.4 809.1,575.4 810.5,572.5 811.2,568.8 813.2,566.8 813.9,580.9 814.6,579.8 815.3,588.6 816.0,597.5 818.0,591.5 818.7,592.4 819.4,600.6 820.1,601.7 820.8,607.4 822.8,598.9 823.5,597.8 824.2,596.7 824.9,593.7 825.5,599.9 828.3,601.5 829.0,607.4 829.7,603.0 830.3,605.9 832.4,605.7 833.1,606.8 833.8,594.5 834.4,600.4 835.1,606.4 837.2,608.6 837.9,610.6 838.5,607.5 839.2,616.7 839.9,619.9 842.7,621.3 843.3,613.3 844.0,611.2 844.7,616.0 846.8,618.8 847.4,615.6 848.1,615.7 848.8,606.9 849.5,599.1 851.5,609.1 852.2,613.6 852.9,612.0 853.6,614.5 854.3,621.5 856.3,614.7 857.0,620.7 857.7,625.7 858.4,632.1 859.1,630.0 861.1,627.9 861.8,632.7 862.5,623.3 863.2,627.0 863.9,635.3 865.9,639.5 866.6,639.3 867.3,635.6 868.0,637.0 868.7,630.6 870.7,631.3 871.4,631.3 872.1,634.4 872.8,635.4 873.4,628.6 875.5,623.3 876.2,625.0 876.9,630.9 877.5,624.1 878.2,627.7 880.3,624.6 881.0,624.7 881.7,629.8 882.3,628.4 883.0,619.3 885.1,626.1 885.8,625.2 886.4,626.4 887.1,626.0 889.9,630.6 890.5,629.4 891.2,629.3 891.9,627.1 892.6,626.7 894.7,625.1 895.3,621.5 896.7,611.0 897.4,606.2 899.4,606.7 900.1,586.9 900.8,586.1 901.5,560.0 902.2,537.7 904.2,510.4 905.6,473.4 906.3,489.7 907.0,466.9 909.0,452.4 909.7,515.5 910.4,520.6 911.1,511.8 913.8,518.1 914.5,537.9 915.2,542.4 915.9,547.2 916.5,524.2 918.6,534.2 919.3,531.5 920.0,523.8 920.6,534.9 921.3,530.0 923.4,526.7 924.1,522.1 924.8,532.2 925.4,533.5 926.1,534.9 928.2,530.5 928.9,515.7 929.5,526.6 930.2,517.2 930.9,518.0 933.0,519.6 933.6,537.4 934.3,537.5 935.0,550.0 935.7,549.2 937.8,547.9 938.4,543.0 939.1,541.4 939.8,546.4 940.5,556.6 942.5,557.6 943.2,558.8 943.9,544.9 944.6,551.0 945.3,546.8 947.3,542.0 948.0,540.9 948.7,542.2 949.4,545.3 950.1,536.7 952.1,519.1 952.8,525.0 953.5,530.5 954.2,524.2 954.9,535.3 956.9,541.2 957.6,543.6 958.3,536.3 959.0,539.0 959.6,538.5 961.7,537.3 962.4,532.7 964.4,529.9 966.5,533.4 967.2,536.3 968.5,546.5 969.2,542.3 971.3,543.0 972.0,546.7 972.6,551.0 973.3,550.7 974.0,555.3 976.1,558.9 976.8,547.0 977.4,545.9 978.1,541.0 978.8,535.3 980.9,524.7 981.5,515.7 982.2,526.0 982.9,532.0 983.6,519.0 985.6,516.3 986.3,513.0 990.4,511.7 991.1,489.8 991.8,494.1 992.5,482.3 993.2,474.0 995.2,461.5 995.9,474.7 996.6,462.0 997.3,466.2 998.0,439.6 1000.0,442.1 1000.7,429.3 1001.4,426.3 1002.1,442.0 1002.8,409.1 1004.8,415.5 1005.5,423.8 1006.2,400.5 1006.9,407.2 1007.5,435.8 1009.6,438.7 1010.3,438.7 1011.0,418.4 1011.6,390.0 1012.3,392.9 1014.4,406.8 1015.1,399.3 1015.8,410.4 1016.4,419.3 1017.1,407.2 1019.2,407.9 1019.9,386.6 1020.5,392.5 1021.2,411.3 1021.9,429.2 1024.0,420.3 1024.6,440.4 1025.3,435.3 1026.0,433.9 1026.7,441.4 1028.7,451.6 1029.4,450.5 1030.1,448.7 1030.8,459.1 1033.5,542.4 1034.2,527.2 1034.9,516.1 1035.6,504.7 1036.3,496.8 1038.3,486.3 1039.0,489.4 1039.7,506.3 1040.4,498.0 1043.8,496.9 1044.5,483.2 1045.2,489.9 1045.9,489.3 1047.9,488.7 1048.6,485.9 1049.3,479.7 1050.6,465.4 1053.4,465.8 1054.1,469.4 1054.7,466.8 1055.4,471.2 1057.5,446.8 1058.2,463.1 1058.9,452.8 1059.5,460.5 1060.2,462.0 1062.3,464.4 1063.0,458.9 1063.6,456.4 1064.3,464.7 1065.0,465.1 1067.1,473.3 1067.7,471.0 1068.4,471.7 1069.1,460.1 1069.8,472.1 1071.9,475.5 1072.5,470.4 1073.2,467.7 1073.9,458.5 1074.6,461.5 1076.6,448.1 1077.3,451.9 1078.0,446.5 1078.7,457.4 1079.4,465.8 1081.4,460.3 1082.1,461.0 1082.8,468.1 1083.5,479.6 1084.2,475.5 1086.2,470.6 1086.9,460.5 1087.6,454.9 1088.3,456.2 1089.0,456.5 1091.0,460.0 1092.4,463.1 1093.1,466.3 1093.7,467.9 1095.8,466.7 1096.5,457.9 1097.2,466.5 1097.9,467.9 1098.5,465.0 1100.6,461.8 1101.3,448.3 1102.0,449.5 1102.6,446.7 1103.3,438.4 1105.4,434.2 1106.1,432.2 1106.7,419.5 1107.4,419.8 1108.1,425.7 1110.2,427.0 1110.9,428.8 1111.5,442.8 1112.2,446.3 1112.9,451.4 1115.0,443.7 1115.6,440.1 1116.3,439.1 1117.0,437.7 1117.7,445.6 1119.7,445.7 1120.4,447.6 1121.1,430.0 1121.8,435.0 1122.5,438.1 1124.5,434.8 1125.2,438.2 1125.9,438.2 1126.6,442.1 1127.3,428.5 1129.3,412.3 1130.0,416.2 1130.7,423.9 1131.4,428.8 1132.1,426.1 1134.1,414.7 1134.8,421.1 1135.5,425.2 1136.2,434.8 1136.9,424.9 1138.9,418.8 1139.6,411.9 1140.3,405.2 1141.0,406.5 1141.6,397.3 1143.7,392.3 1144.4,389.2 1145.1,365.7 1145.7,371.5 1146.4,369.4 1148.5,372.7 1149.2,381.0 1149.9,366.7 1150.5,361.6 1151.2,378.4 1153.3,366.6 1154.0,353.7 1155.3,333.9 1156.0,339.3 1158.1,346.0 1159.4,349.3 1160.1,353.2 1160.8,372.5 1162.8,383.0 1163.5,403.3 1164.2,389.4 1164.9,396.0 1165.6,418.2 1167.6,402.4 1168.3,395.6 1169.0,403.3 1169.7,400.7 1170.4,390.8 1172.4,380.6 1173.1,387.7 1174.5,391.6 1175.2,404.7 1177.2,403.4 1177.9,412.9 1178.6,415.9 1179.3,401.4 1180.0,411.2 1182.0,404.0 1182.7,403.2 1183.4,402.3 1184.1,398.0 1184.7,413.4 1186.8,418.5 1187.5,428.7 1188.2,432.2 1188.8,435.2 1189.5,451.6 1191.6,437.8 1192.3,431.8 1193.0,431.2 1193.6,433.0 1194.3,432.9 1196.4,428.8 1197.1,430.7 1197.7,438.8 1198.4,431.4 1199.1,427.1 1201.2,427.1 1201.8,437.0 1202.5,434.6 1203.2,438.8 1203.9,429.4 1206.0,442.1 1206.6,450.9 1207.3,445.8 1208.0,449.5 1208.7,443.9 1210.7,439.5 1211.4,443.0 1212.1,442.1 1215.5,443.6 1216.2,434.8 1216.9,440.5 1218.3,420.4 1220.3,419.9 1221.0,412.3 1221.7,420.2 1222.4,425.7 1223.1,424.9 1225.1,408.8 1225.8,408.2 1226.5,404.7 1227.2,412.0 1227.8,412.5 1229.9,419.1 1230.6,425.2 1231.3,419.5 1232.0,418.0 1232.6,414.8 1234.7,421.3 1235.4,418.7 1236.1,405.4 1236.7,410.8 1237.4,422.1 1239.5,439.6 1240.2,445.0 1240.8,454.2 1241.5,450.6 1242.2,456.1 1244.3,449.5 1245.0,446.5 1245.6,442.0 1246.3,450.3 1247.0,454.8 1249.1,454.1 1251.8,468.4 1253.8,452.5 1254.5,463.0 1255.2,463.9 1255.9,477.7 1256.6,475.1 1258.6,488.7 1259.3,499.0 1260.0,503.3 1260.7,506.3 1261.4,492.5 1263.4,493.0 1264.1,482.2 1264.8,482.7 1265.5,485.2 1266.2,489.7 1268.2,477.5 1268.9,477.9 1269.6,477.8 1270.3,488.1 1271.0,499.4 1273.0,514.0 1273.7,503.2 1274.4,494.8 1275.1,509.5 1275.7,508.0 1277.8,516.0 1278.5,519.7 1279.2,510.0 1279.8,517.1 1283.9,494.7 1284.6,504.0 1285.3,500.5 1287.4,504.0 1288.1,501.2 1288.7,495.8 1289.4,479.3 1290.1,483.8 1292.2,481.7 1292.8,482.1 1293.5,491.0 1294.2,500.0 1294.9,496.7 1296.9,493.2 1297.6,503.5 1298.3,495.9 1299.0,499.5 1301.7,489.8 1302.4,494.1 1303.1,490.5 1303.8,476.6 1304.5,478.3 1306.5,478.0 1307.2,481.3 1307.9,479.1 1308.6,480.7 1309.3,493.1 1311.3,501.9 1312.0,500.7 1312.7,499.3 1313.4,508.8 1314.1,499.6 1316.8,492.6 1317.5,496.2 1318.2,497.9 1318.8,498.3 1320.9,490.9 1321.6,469.5 1322.3,482.5 1322.9,490.0 1323.6,497.9 1325.7,510.0 1326.4,508.8 1327.1,512.9 1327.7,519.2 1328.4,514.7 1330.5,509.1 1331.2,518.9 1331.8,518.0 1332.5,523.9 1335.3,528.9 1335.9,542.6 1336.6,535.3 1337.3,542.0 1338.0,555.8"/>
<line class="fall" x1="90.1" y1="188.1" x2="267.9" y2="627.4"/>
<circle cx="179.0" cy="407.8" r="10" fill="#fbfbf7" stroke="#a8322a" stroke-width="1.5"/>
<text x="179.0" y="411.8" font-size="12" fill="#a8322a" text-anchor="middle" font-weight="700" >1</text>
<line class="rise" x1="267.9" y1="627.4" x2="281.6" y2="508.7"/>
<line class="fall" x1="281.6" y1="508.7" x2="296.0" y2="596.9"/>
<circle cx="288.8" cy="552.8" r="10" fill="#fbfbf7" stroke="#a8322a" stroke-width="1.5"/>
<text x="288.8" y="556.8" font-size="12" fill="#a8322a" text-anchor="middle" font-weight="700" >2</text>
<line class="rise" x1="296.0" y1="596.9" x2="339.8" y2="478.2"/>
<line class="fall" x1="339.8" y1="478.2" x2="420.5" y2="688.7"/>
<circle cx="380.1" cy="583.4" r="10" fill="#fbfbf7" stroke="#a8322a" stroke-width="1.5"/>
<text x="380.1" y="587.4" font-size="12" fill="#a8322a" text-anchor="middle" font-weight="700" >3</text>
<line class="rise" x1="420.5" y1="688.7" x2="485.5" y2="504.8"/>
<line class="fall" x1="485.5" y1="504.8" x2="570.3" y2="613.3"/>
<circle cx="527.9" cy="559.0" r="10" fill="#fbfbf7" stroke="#a8322a" stroke-width="1.5"/>
<text x="527.9" y="563.0" font-size="12" fill="#a8322a" text-anchor="middle" font-weight="700" >4</text>
<line class="rise" x1="570.3" y1="613.3" x2="612.1" y2="528.9"/>
<line class="fall" x1="612.1" y1="528.9" x2="738.0" y2="670.0"/>
<circle cx="675.0" cy="599.5" r="10" fill="#fbfbf7" stroke="#a8322a" stroke-width="1.5"/>
<text x="675.0" y="603.5" font-size="12" fill="#a8322a" text-anchor="middle" font-weight="700" >5</text>
<line class="rise" x1="738.0" y1="670.0" x2="909.0" y2="452.4"/>
<line class="fall" x1="909.0" y1="452.4" x2="976.1" y2="558.9"/>
<circle cx="942.5" cy="505.6" r="10" fill="#fbfbf7" stroke="#a8322a" stroke-width="1.5"/>
<text x="942.5" y="509.6" font-size="12" fill="#a8322a" text-anchor="middle" font-weight="700" >6</text>
<line class="rise" x1="976.1" y1="558.9" x2="1019.9" y2="386.6"/>
<line class="fall" x1="1019.9" y1="386.6" x2="1033.5" y2="542.4"/>
<circle cx="1026.7" cy="464.5" r="10" fill="#fbfbf7" stroke="#a8322a" stroke-width="1.5"/>
<text x="1026.7" y="468.5" font-size="12" fill="#a8322a" text-anchor="middle" font-weight="700" >7</text>
<line class="rise" x1="1033.5" y1="542.4" x2="1155.3" y2="333.9"/>
<line class="fall unfinished" x1="1155.3" y1="333.9" x2="1338.0" y2="555.8"/>
<circle cx="1246.7" cy="444.8" r="10" fill="#fbfbf7" stroke="#a8322a" stroke-width="1.5"/>
<text x="1246.7" y="448.8" font-size="12" fill="#a8322a" text-anchor="middle" font-weight="700" >8</text>
<circle cx="90.1" cy="188.1" r="6" fill="#c94337" stroke="#ffffff" stroke-width="2"/>
<circle cx="267.9" cy="627.4" r="6" fill="#1f7a56" stroke="#ffffff" stroke-width="2"/>
<circle cx="281.6" cy="508.7" r="6" fill="#c94337" stroke="#ffffff" stroke-width="2"/>
<circle cx="296.0" cy="596.9" r="6" fill="#1f7a56" stroke="#ffffff" stroke-width="2"/>
<circle cx="339.8" cy="478.2" r="6" fill="#c94337" stroke="#ffffff" stroke-width="2"/>
<circle cx="420.5" cy="688.7" r="6" fill="#1f7a56" stroke="#ffffff" stroke-width="2"/>
<circle cx="485.5" cy="504.8" r="6" fill="#c94337" stroke="#ffffff" stroke-width="2"/>
<circle cx="570.3" cy="613.3" r="6" fill="#1f7a56" stroke="#ffffff" stroke-width="2"/>
<circle cx="612.1" cy="528.9" r="6" fill="#c94337" stroke="#ffffff" stroke-width="2"/>
<circle cx="738.0" cy="670.0" r="6" fill="#1f7a56" stroke="#ffffff" stroke-width="2"/>
<circle cx="909.0" cy="452.4" r="6" fill="#c94337" stroke="#ffffff" stroke-width="2"/>
<circle cx="976.1" cy="558.9" r="6" fill="#1f7a56" stroke="#ffffff" stroke-width="2"/>
<circle cx="1019.9" cy="386.6" r="6" fill="#c94337" stroke="#ffffff" stroke-width="2"/>
<circle cx="1033.5" cy="542.4" r="6" fill="#1f7a56" stroke="#ffffff" stroke-width="2"/>
<circle cx="1155.3" cy="333.9" r="6" fill="#c94337" stroke="#ffffff" stroke-width="2"/>
<circle cx="1338.0" cy="555.8" r="6" fill="#1f7a56" stroke="#ffffff" stroke-width="2" stroke-dasharray="4 4"/>
<text x="98.1" y="176.1" font-size="12" fill="#8f2c25" text-anchor="start" font-weight="700" class="label">2021-06-28  8,276.63</text>
<text x="1330.0" y="575.8" font-size="12" fill="#1f6d4d" text-anchor="end" font-weight="700" class="label">2026-06-26  4,255.59  未确认</text>
<text x="428.5" y="708.7" font-size="12" fill="#1f6d4d" text-anchor="start" font-weight="700" class="label">2022-10-24  2,801.99</text>
<text x="88.0" y="840.0" font-size="18" fill="#172326" text-anchor="start" font-weight="700" >峰值 -&gt; 波谷轮次</text>
<text x="256.0" y="840.0" font-size="12" fill="#536166" text-anchor="start" font-weight="400" >表内点位均为真实指数值；跌幅=波谷/峰值-1。</text>
<text x="88.0" y="880.0" font-size="14" fill="#a8322a" text-anchor="start" font-weight="700" >1</text>
<text x="122.0" y="880.0" font-size="12" fill="#344242" text-anchor="start" font-weight="400" >峰 2021-06-28  8,276.63</text>
<text x="122.0" y="900.0" font-size="12" fill="#344242" text-anchor="start" font-weight="400" >谷 2022-03-15  3,472.42</text>
<text x="438.0" y="890.0" font-size="13" fill="#a8322a" text-anchor="end" font-weight="700" >-58.05%</text>
<text x="88.0" y="938.0" font-size="14" fill="#a8322a" text-anchor="start" font-weight="700" >2</text>
<text x="122.0" y="938.0" font-size="12" fill="#344242" text-anchor="start" font-weight="400" >峰 2022-04-04  4,769.99</text>
<text x="122.0" y="958.0" font-size="12" fill="#344242" text-anchor="start" font-weight="400" >谷 2022-04-25  3,806.19</text>
<text x="438.0" y="948.0" font-size="13" fill="#a8322a" text-anchor="end" font-weight="700" >-20.21%</text>
<text x="88.0" y="996.0" font-size="14" fill="#a8322a" text-anchor="start" font-weight="700" >3</text>
<text x="122.0" y="996.0" font-size="12" fill="#344242" text-anchor="start" font-weight="400" >峰 2022-06-28  5,103.89</text>
<text x="122.0" y="1016.0" font-size="12" fill="#344242" text-anchor="start" font-weight="400" >谷 2022-10-24  2,801.99</text>
<text x="438.0" y="1006.0" font-size="13" fill="#a8322a" text-anchor="end" font-weight="700" >-45.10%</text>
<text x="88.0" y="1054.0" font-size="14" fill="#a8322a" text-anchor="start" font-weight="700" >4</text>
<text x="122.0" y="1054.0" font-size="12" fill="#344242" text-anchor="start" font-weight="400" >峰 2023-01-27  4,813.23</text>
<text x="122.0" y="1074.0" font-size="12" fill="#344242" text-anchor="start" font-weight="400" >谷 2023-05-31  3,626.73</text>
<text x="438.0" y="1064.0" font-size="13" fill="#a8322a" text-anchor="end" font-weight="700" >-24.65%</text>
<text x="708.0" y="880.0" font-size="14" fill="#a8322a" text-anchor="start" font-weight="700" >5</text>
<text x="742.0" y="880.0" font-size="12" fill="#344242" text-anchor="start" font-weight="400" >峰 2023-07-31  4,549.95</text>
<text x="742.0" y="900.0" font-size="12" fill="#344242" text-anchor="start" font-weight="400" >谷 2024-01-31  3,005.80</text>
<text x="1058.0" y="890.0" font-size="13" fill="#a8322a" text-anchor="end" font-weight="700" >-33.94%</text>
<text x="708.0" y="938.0" font-size="14" fill="#a8322a" text-anchor="start" font-weight="700" >6</text>
<text x="742.0" y="938.0" font-size="12" fill="#344242" text-anchor="start" font-weight="400" >峰 2024-10-07  5,386.48</text>
<text x="742.0" y="958.0" font-size="12" fill="#344242" text-anchor="start" font-weight="400" >谷 2025-01-13  4,221.92</text>
<text x="1058.0" y="948.0" font-size="13" fill="#a8322a" text-anchor="end" font-weight="700" >-21.62%</text>
<text x="708.0" y="996.0" font-size="14" fill="#a8322a" text-anchor="start" font-weight="700" >7</text>
<text x="742.0" y="996.0" font-size="12" fill="#344242" text-anchor="start" font-weight="400" >峰 2025-03-18  6,105.50</text>
<text x="742.0" y="1016.0" font-size="12" fill="#344242" text-anchor="start" font-weight="400" >谷 2025-04-07  4,401.51</text>
<text x="1058.0" y="1006.0" font-size="13" fill="#a8322a" text-anchor="end" font-weight="700" >-27.91%</text>
<text x="708.0" y="1054.0" font-size="14" fill="#a8322a" text-anchor="start" font-weight="700" >8 *</text>
<text x="742.0" y="1054.0" font-size="12" fill="#344242" text-anchor="start" font-weight="400" >峰 2025-10-02  6,682.86</text>
<text x="742.0" y="1074.0" font-size="12" fill="#344242" text-anchor="start" font-weight="400" >谷 2026-06-26  4,255.59</text>
<text x="1058.0" y="1064.0" font-size="13" fill="#a8322a" text-anchor="end" font-weight="700" >-36.32%</text>
<text x="88.0" y="1144.0" font-size="16" fill="#172326" text-anchor="start" font-weight="700" >严格创新高口径</text>
<text x="88.0" y="1169.0" font-size="12" fill="#344242" text-anchor="start" font-weight="400" >样本最高：2021-06-28  8,276.63</text>
<text x="398.0" y="1169.0" font-size="12" fill="#344242" text-anchor="start" font-weight="400" >后续最低：2022-10-24  2,801.99</text>
<text x="708.0" y="1169.0" font-size="12" fill="#344242" text-anchor="start" font-weight="400" >跌幅：-66.15%；样本末未再突破该高点。</text>
<text x="88.0" y="1324.0" font-size="12" fill="#596862" text-anchor="start" font-weight="400" >真实点位来源：https://www.hsi.com.hk/data/eng/indexes/02083.00/chart.json；requestDate 2026-06-29 07:48:13；lastUpdate 2026-06-26 00:00:00；previousClose 4255.59.</text>
<text x="88.0" y="1342.0" font-size="12" fill="#596862" text-anchor="start" font-weight="400" >估值：官方 factsheet 数据截至 29 May 2026; PE 30.83 倍，股息率 1.01%。</text>
<text x="88.0" y="1360.0" font-size="12" fill="#596862" text-anchor="start" font-weight="400" >限制：官方 chart.json 免费走势图字段为 5 年窗口；若要覆盖恒生科技指数 2020-07-27 发布以来全历史，需要另取更长历史点位源。</text>
</svg>